<svg xmlns="http://www.w3.org/2000/svg" viewBox="0 0 448 512" fill="white"><path d="M380.9 97.1C339 55.1 283.2 32 223.9 32c-122.4 0-222 99.6-222 222 0 39.1 10.2 77.3 29.6 111L0 480l117.7-30.9c32.4 17.7 68.9 27 106.1 27h.1c122.3 0 224.1-99.6 224.1-222 0-59.3-25.2-115-67.1-157zm-157 341.6c-33.8 0-67.6-9.5-97.2-27.2l-6.7-4-71.7 18.8 19.1-69.8-4.4-7c-19.5-31.1-29.9-67.7-29.9-105.8 0-107.1 87.1-194.2 194.2-194.2 51.5 0 99.5 20.1 136.3 56.8 36.8 36.8 56.8 84.8 56.8 136.3-.1 107.1-87.1 194.2-194.2 194.2zM223.9 158.1c-13.3 0-24.1 10.8-24.1 24.1v79.2c0 13.3 10.8 24.1 24.1 24.1s24.1-10.8 24.1-24.1v-79.2c0-13.3-10.8-24.1-24.1-24.1zm0 158.4c-13.3 0-24.1 10.8-24.1 24.1s10.8 24.1 24.1 24.1 24.1-10.8 24.1-24.1-10.8-24.1-24.1-24.1z"/></svg>